<?xml version="1.0" encoding="UTF-8" standalone="no"?>
<!-- Created with Inkscape (http://www.inkscape.org/) -->

<svg
   xmlns:dc="http://purl.org/dc/elements/1.1/"
   xmlns:cc="http://creativecommons.org/ns#"
   xmlns:rdf="http://www.w3.org/1999/02/22-rdf-syntax-ns#"
   xmlns:svg="http://www.w3.org/2000/svg"
   xmlns="http://www.w3.org/2000/svg"
   xmlns:sodipodi="http://sodipodi.sourceforge.net/DTD/sodipodi-0.dtd"
   xmlns:inkscape="http://www.inkscape.org/namespaces/inkscape"
   width="1024"
   height="1024"
   id="svg2"
   version="1.1"
   inkscape:version="0.48.2 r9819"
   sodipodi:docname="icon.svg"
   inkscape:export-filename="/Users/ryota/code/toybox/QuickSkype/QuickSkype/QuickSkype.iconset/icon_32x32@2x.png"
   inkscape:export-xdpi="5.625"
   inkscape:export-ydpi="5.625">
  <defs
     id="defs4" />
  <sodipodi:namedview
     id="base"
     pagecolor="#ffffff"
     bordercolor="#666666"
     borderopacity="1.0"
     inkscape:pageopacity="0.0"
     inkscape:pageshadow="2"
     inkscape:zoom="1.0039062"
     inkscape:cx="391.47082"
     inkscape:cy="731.71996"
     inkscape:document-units="px"
     inkscape:current-layer="svg2"
     showgrid="false"
     inkscape:window-width="1159"
     inkscape:window-height="960"
     inkscape:window-x="290"
     inkscape:window-y="0"
     inkscape:window-maximized="0" />
  <metadata
     id="metadata7">
    <rdf:RDF>
      <cc:Work
         rdf:about="">
        <dc:format>image/svg+xml</dc:format>
        <dc:type
           rdf:resource="http://purl.org/dc/dcmitype/StillImage" />
        <dc:title></dc:title>
      </cc:Work>
    </rdf:RDF>
  </metadata>
  <g
     inkscape:groupmode="layer"
     id="layer4"
     inkscape:label="Layer#1"
     style="display:inline">
    <path
       inkscape:connector-curvature="0"
       id="path4049"
       d="m 293.71875,58 c -145.17199,0 -262.875,115.75744 -262.875,258.5625 0,46.67897 12.5957,90.47898 34.59375,128.28125 C 60.55458,471.15352 58,498.27567 58,526 c 0,244.10986 197.89014,442 442,442 27.51589,0 54.43833,-2.53233 80.5625,-7.34375 C 618.22443,981.8789 661.68939,994 708,994 851.59403,994 968,877.59403 968,734 968,687.68939 955.8789,644.22443 934.65625,606.5625 939.46767,580.43833 942,553.51589 942,526 942,281.89014 744.10986,84 500,84 473.38699,84 447.31779,86.36748 422,90.875 384.05166,69.95819 340.31203,58 293.71875,58 z"
       style="fill:#000000;fill-opacity:0.11764706;fill-rule:evenodd;stroke:#000000;stroke-width:1px;stroke-linecap:butt;stroke-linejoin:miter;stroke-opacity:0" />
  </g>
  <g
     inkscape:label="Layer 1"
     inkscape:groupmode="layer"
     id="layer1"
     transform="translate(0,-28.362183)"
     sodipodi:insensitive="true"
     style="display:inline">
    <path
       style="fill:#54c700;fill-opacity:1;fill-rule:evenodd;stroke:#000000;stroke-width:1px;stroke-linecap:butt;stroke-linejoin:miter;stroke-opacity:0"
       d="m 305.71875,44 c -145.17199,0 -262.875,115.75744 -262.875,258.5625 0,46.67897 12.595698,90.47898 34.59375,128.28125 C 72.554577,457.15352 70,484.27567 70,512 c 0,244.10986 197.89014,442 442,442 27.51589,0 54.43833,-2.53233 80.5625,-7.34375 C 630.22443,967.8789 673.68939,980 720,980 863.59403,980 980,863.59403 980,720 980,673.68939 967.8789,630.22443 946.65625,592.5625 951.46767,566.43833 954,539.51589 954,512 954,267.89014 756.10986,70 512,70 485.38699,70 459.31779,72.367484 434,76.875 396.05166,55.958193 352.31203,44 305.71875,44 z"
       transform="translate(0,28.362183)"
       id="path3163"
       inkscape:connector-curvature="0" />
  </g>
</svg>
